<svg xmlns="http://www.w3.org/2000/svg" width="123.8447mm" height="100.70678mm" viewBox="0 0 123.8447 100.70678"><defs><linearGradient id="b" x1="0" x2="1" y1="0" y2="0" gradientTransform="matrix(0 -11.74133 -11.74133 0 165.396 517.612)" gradientUnits="userSpaceOnUse" spreadMethod="pad"><stop offset="0" style="stop-opacity:1;stop-color:#f9aa8f"/><stop offset="0.15439167" style="stop-opacity:1;stop-color:#f58466"/><stop offset="0.186922" style="stop-opacity:1;stop-color:#f58466"/><stop offset="0.52634243" style="stop-opacity:1;stop-color:#ed1c24"/><stop offset="0.591837" style="stop-opacity:1;stop-color:#ed1c24"/><stop offset="1" style="stop-opacity:1;stop-color:#ed1c24"/></linearGradient><clipPath id="a" clipPathUnits="userSpaceOnUse"><path d="M0 595.28h841.89V0H0Z"/></clipPath></defs><path d="M-130.026 60.098h4.43v.918h-4.43zm5.056-1.632h-.45a.176.176 0 0 0-.177.176v.724h-4.429v-.724a.176.176 0 0 0-.176-.176h-.45a.176.176 0 0 0-.177.176v2.93c0 .097.079.176.176.176h5.683a.176.176 0 0 0 .176-.177v-2.929a.176.176 0 0 0-.176-.176" style="fill:#fff;fill-opacity:1;fill-rule:nonzero;stroke:none;stroke-width:.352778" transform="translate(-95.325 -90.487)"/><path d="M0 0h16.466a.5.5 0 0 1 .5.5v1.075a.5.5 0 0 1-.5.5H1.777v1.687h14.076a.5.5 0 0 1 .5.5v4.81a.5.5 0 0 1-.5.5H0a.5.5 0 0 1-.5-.5V7.998a.5.5 0 0 1 .5-.5h14.077V5.837H0a.5.5 0 0 1-.5-.5V.5A.5.5 0 0 1 0 0" style="fill:#fff;fill-opacity:1;fill-rule:nonzero;stroke:none" transform="matrix(.35278 0 0 -.35278 -225.978 -33.66)"/><g clip-path="url(#a)" transform="matrix(1.6846 0 0 -1.6846 -216.472 878.464)"><path d="m0 0-.608.806a36.586 36.586 0 0 0-7.486 22.216c.002 20.302 16.459 36.755 36.759 36.759 20.304-.004 36.755-16.457 36.757-36.759A36.588 36.588 0 0 0 57.941.806L57.328 0Z" style="fill:#fff;fill-opacity:1;fill-rule:nonzero;stroke:none" transform="translate(136.595 461.688)"/><path d="M0 0h-61.874c.37-.732.769-1.447 1.189-2.148h59.49A36.45 36.45 0 0 1 0 0" style="fill:#ed1c24;fill-opacity:1;fill-rule:nonzero;stroke:none" transform="translate(196.198 468.978)"/><path d="M0 0c0 19.172-15.54 34.716-34.715 34.716-19.174 0-34.714-15.544-34.714-34.716 0-4.955 1.041-9.664 2.912-13.927h63.603A34.598 34.598 0 0 1 0 0" style="fill:#ed1c24;fill-opacity:1;fill-rule:nonzero;stroke:none" transform="translate(199.974 484.72)"/><path d="M0 0a36.35 36.35 0 0 1 1.093-1.506h55.258c.379.493.746.992 1.093 1.506Z" style="fill:#ed1c24;fill-opacity:1;fill-rule:nonzero;stroke:none" transform="translate(136.537 465.228)"/></g><path d="M165.307 516.91s-13.781.287-20.557-7.769a8.306 8.306 0 0 1-1.135-1.726c5.398 2.349 12.968 3.814 21.353 3.814 8.836 0 16.768-1.626 22.209-4.2-.275.683-.7 1.388-1.312 2.112-6.319 7.519-18.753 7.77-20.381 7.77l-.177-.001" style="fill:url(#b);stroke:none" transform="matrix(1.6846 0 0 -1.6846 -216.472 878.464)"/><path d="M0 0c0 .862.708 1.564 1.57 1.564.858 0 1.552-.702 1.552-1.564 0-.864-.686-1.542-1.552-1.542C.708-1.542 0-.855 0 0m-.211 0c0-.974.801-1.764 1.781-1.764A1.75 1.75 0 0 1 3.339 0c0 .982-.796 1.777-1.769 1.777A1.78 1.78 0 0 1-.211 0" style="fill:#fff;fill-opacity:1;fill-rule:nonzero;stroke:none" transform="matrix(1.6846 0 0 -1.6846 98.779 30.922)"/><path d="M0 0v.896h.652C.768.896.84.885.887.853c.106-.044.16-.137.168-.267l.006-.363c0-.074.016-.128.02-.145.008-.04.012-.06.012-.078h.353v.051c-.042.025-.076.055-.084.123a.456.456 0 0 0-.028.168V.64a.393.393 0 0 1-.08.256.622.622 0 0 1-.177.141c.09.049.159.107.219.182.05.077.074.186.074.306 0 .246-.096.415-.293.497-.1.043-.237.072-.393.072H-.29V0Zm.032 1.828h.697c.095 0 .18-.025.23-.049.118-.048.164-.145.164-.298 0-.136-.034-.235-.096-.294a.747.747 0 0 0-.337-.069H.032Z" style="fill:#fff;fill-opacity:1;fill-rule:nonzero;stroke:none" transform="matrix(1.6846 0 0 -1.6846 100.574 32.766)"/><path d="M0 0c-1.867 0-3.385 1.484-3.385 3.32 0 1.832 1.518 3.319 3.385 3.319 1.875 0 3.387-1.487 3.387-3.319C3.387 1.484 1.875 0 0 0m7.582 12.694H2.495v2.112s-.025 1.257-1.276 1.257h-2.358c-.84 0-1.125-.559-1.225-.934v-2.435h-5.213s-.951-.019-.951-.995v-.949s.014-1.73 1.703-1.73H-4.911c-1.654-1.37-2.71-3.415-2.71-5.7 0-4.117 3.42-7.466 7.621-7.466 4.205 0 7.623 3.349 7.623 7.466 0 2.285-1.055 4.33-2.71 5.7H6.83c1.689 0 1.703 1.73 1.703 1.73v.949c0 .976-.951.995-.951.995" style="fill:#fff;fill-opacity:1;fill-rule:nonzero;stroke:none" transform="matrix(1.6846 0 0 -1.6846 29.262 62.98)"/><path d="M0 0h-3.512v2.367c0 .668-.527 1.213-1.181 1.213h-2.673c-.654 0-1.18-.545-1.18-1.213V0h-5.872v2.367c0 .668-.535 1.213-1.185 1.213h-2.673c-.65 0-1.185-.545-1.185-1.213V0h-3.495c-.22-.025-.973-.174-.973-1.107v-1.056s.016-1.932 1.865-1.932H-.891C.958-4.095.976-2.163.976-2.163v1.056C.976-.174.222-.025 0 0" style="fill:#fff;fill-opacity:1;fill-rule:nonzero;stroke:none" transform="matrix(1.6846 0 0 -1.6846 105.868 66.424)"/><path d="M-106.736 83.337h2.114v1.69h-2.114zm-2.52 3.113h7.142c.652 0 .657-.671.657-.671v-.367c0-.323-.266-.376-.344-.385h-1.154v-1.69h.84c.653 0 .658-.671.658-.671V82.3c0-.323-.266-.376-.344-.384h-7.77c-.077.008-.343.06-.343.384v.366s.005.671.657.671h.854v1.69h-1.168c-.077.009-.343.062-.343.385v.367s.005.67.657.67" style="fill:#fff;fill-opacity:1;fill-rule:nonzero;stroke:none;stroke-width:.352778" transform="translate(591.214 -353.985) scale(4.77523)"/><path d="M0 0h-1.937c-1.215 0-1.238-1.228-1.238-1.228h-.002l.005-8.374H-4.6v8.29c0 1.241-1.2 1.263-1.2 1.263h-1.943c-1.198 0-1.238-1.182-1.242-1.221l.008-20.882c.042-.298.236-1.12 1.234-1.12H-5.8s1.2.026 1.2 1.262h.009l-.003 8.419h1.422v-8.527c.028-.259.196-1.154 1.235-1.154H0s1.205.026 1.205 1.262h.004L1.205-1.265C1.205-.027 0 0 0 0" style="fill:#fff;fill-opacity:1;fill-rule:nonzero;stroke:none" transform="matrix(1.6846 0 0 -1.6846 60.022 35.857)"/></svg>